<svg width="640" height="640" viewBox="0 0 640 640" fill="none" xmlns="http://www.w3.org/2000/svg">
<path d="M160 586.666C145.855 586.666 132.29 581.047 122.288 571.045C112.286 561.044 106.667 547.478 106.667 533.333V106.666C106.667 92.5215 112.286 78.956 122.288 68.9541C132.29 58.9521 145.855 53.3331 160 53.3331H373.334C381.775 53.3194 390.136 54.9758 397.934 58.2069C405.733 61.438 412.815 66.18 418.774 72.1598L514.454 167.84C520.449 173.8 525.205 180.889 528.445 188.697C531.686 196.506 533.347 204.879 533.334 213.333V533.333C533.334 547.478 527.715 561.044 517.713 571.045C507.711 581.047 494.145 586.666 480 586.666H160Z" stroke="black" stroke-width="2" stroke-linecap="round" stroke-linejoin="round"/>
<path d="M373.333 53.3335V186.667C373.333 193.739 376.143 200.522 381.143 205.523C386.144 210.524 392.927 213.333 400 213.333H533.333" stroke="black" stroke-width="2" stroke-linecap="round" stroke-linejoin="round"/>
<path d="M320 480V320" stroke="black" stroke-width="2" stroke-linecap="round" stroke-linejoin="round"/>
<path d="M240 400L320 480L400 400" stroke="black" stroke-width="2" stroke-linecap="round" stroke-linejoin="round"/>
<rect width="230" height="121" transform="translate(384 466)" fill="#E5E5E5"/>
<rect x="361" y="477" width="253" height="117" rx="32" fill="#E5E5E5"/>
<path d="M403.456 557.336C403.456 575.597 410.453 584.728 424.448 584.728C427.435 584.728 430.379 584.387 433.28 583.704C436.181 583.021 439.552 581.784 443.392 579.992L446.336 587.032C442.496 588.824 438.741 590.147 435.072 591C431.403 591.853 427.819 592.28 424.32 592.28C414.763 592.28 407.424 589.251 402.304 583.192C397.269 577.133 394.752 568.515 394.752 557.336V537.624C394.752 526.445 397.269 517.827 402.304 511.768C407.424 505.709 414.763 502.68 424.32 502.68C427.819 502.68 431.488 503.107 435.328 503.96C439.168 504.813 442.837 506.136 446.336 507.928L443.52 514.968C437.12 511.811 430.72 510.232 424.32 510.232C410.411 510.232 403.456 519.363 403.456 537.624V557.336ZM482.991 584.984C488.708 584.984 493.146 583.661 496.303 581.016C499.46 578.285 501.039 574.36 501.039 569.24C501.039 564.973 499.887 561.304 497.583 558.232C495.364 555.075 491.738 552.813 486.703 551.448L476.463 548.632C469.722 546.755 464.858 543.853 461.871 539.928C458.884 536.003 457.391 531.267 457.391 525.72C457.391 521.624 458.202 517.827 459.823 514.328C461.444 510.829 464.09 508.013 467.759 505.88C471.514 503.747 476.591 502.68 482.991 502.68C486.66 502.68 490.543 503.149 494.639 504.088C498.82 504.941 502.959 506.349 507.055 508.312L504.239 515.48C500.143 513.517 496.346 512.109 492.847 511.256C489.348 510.403 486.063 509.976 482.991 509.976C477.53 509.976 473.306 511.171 470.319 513.56C467.332 515.949 465.839 519.789 465.839 525.08C465.839 528.749 466.82 531.949 468.783 534.68C470.746 537.325 474.33 539.373 479.535 540.824L489.775 543.64C496.346 545.432 501.252 548.419 504.495 552.6C507.823 556.781 509.487 561.987 509.487 568.216C509.487 575.299 507.396 581.101 503.215 585.624C499.119 590.061 492.378 592.28 482.991 592.28C478.98 592.28 474.714 591.811 470.191 590.872C465.668 589.933 461.146 588.44 456.623 586.392L459.311 579.352C463.663 581.4 467.716 582.851 471.471 583.704C475.226 584.557 479.066 584.984 482.991 584.984ZM582.578 503.96L554.674 591H546.354L518.322 503.96H526.77L540.978 548.248L550.834 579.48L560.69 548.248L574.642 503.96H582.578Z" fill="black"/>
</svg>
