<svg width="640" height="640" viewBox="0 0 640 640" fill="none" xmlns="http://www.w3.org/2000/svg">
<path d="M160 586.666C145.855 586.666 132.29 581.047 122.288 571.045C112.286 561.044 106.667 547.478 106.667 533.333V106.666C106.667 92.5215 112.286 78.956 122.288 68.9541C132.29 58.9521 145.855 53.3331 160 53.3331H373.334C381.775 53.3194 390.136 54.9758 397.934 58.2069C405.733 61.438 412.815 66.18 418.774 72.1598L514.454 167.84C520.449 173.8 525.205 180.889 528.445 188.697C531.686 196.506 533.347 204.879 533.334 213.333V533.333C533.334 547.478 527.715 561.044 517.713 571.045C507.711 581.047 494.145 586.666 480 586.666H160Z" stroke="black" stroke-width="2" stroke-linecap="round" stroke-linejoin="round"/>
<path d="M373.333 53.333V186.666C373.333 193.739 376.143 200.522 381.143 205.523C386.144 210.523 392.927 213.333 400 213.333H533.333" stroke="black" stroke-width="2" stroke-linecap="round" stroke-linejoin="round"/>
<path d="M320 480V320" stroke="black" stroke-width="2" stroke-linecap="round" stroke-linejoin="round"/>
<path d="M240 400L320 480L400 400" stroke="black" stroke-width="2" stroke-linecap="round" stroke-linejoin="round"/>
<rect width="230" height="121" transform="translate(384 466)" fill="#E5E5E5"/>
<rect x="361" y="477" width="253" height="117" rx="32" fill="#E5E5E5"/>
<path d="M442.2 575.92V583H397.8V501.4H441V508.48H405.6V538.12H437.4V545.2H405.6V575.92H442.2ZM489.638 583L473.678 558.04L458.078 583H450.398L469.958 552.52L451.958 524.56H460.118L474.518 547L488.558 524.56H496.238L478.238 552.52L497.798 583H489.638ZM515.624 550.12V557.32C515.624 563.88 516.864 568.92 519.344 572.44C521.824 575.88 525.784 577.6 531.224 577.6C533.784 577.6 536.384 577.28 539.024 576.64C541.664 575.92 544.344 574.92 547.064 573.64L549.464 579.52C543.384 582.64 537.104 584.2 530.624 584.2C523.184 584.2 517.544 581.84 513.704 577.12C509.944 572.4 508.064 565.8 508.064 557.32V550.12C508.064 541.72 509.944 535.16 513.704 530.44C517.544 525.72 523.184 523.36 530.624 523.36C533.424 523.36 536.384 523.72 539.504 524.44C542.624 525.16 545.584 526.24 548.384 527.68L545.984 533.68C543.584 532.56 541.144 531.68 538.664 531.04C536.184 530.32 533.704 529.96 531.224 529.96C525.784 529.96 521.824 531.68 519.344 535.12C516.864 538.56 515.624 543.56 515.624 550.12ZM605.659 579.52C602.379 581.2 598.939 582.4 595.339 583.12C591.819 583.84 588.619 584.2 585.739 584.2C577.579 584.2 571.499 581.84 567.499 577.12C563.579 572.4 561.619 565.8 561.619 557.32V550.12C561.619 542.04 563.619 535.56 567.619 530.68C571.619 525.8 577.379 523.36 584.899 523.36C590.819 523.36 595.779 525.12 599.779 528.64C603.859 532.16 605.899 537.48 605.899 544.6C605.899 547.88 605.419 551.64 604.459 555.88H568.939V557.32C568.939 563.88 570.259 568.92 572.899 572.44C575.539 575.88 579.819 577.6 585.739 577.6C588.139 577.6 590.899 577.28 594.019 576.64C597.219 576 600.299 575 603.259 573.64L605.659 579.52ZM584.899 529.96C579.539 529.96 575.539 531.72 572.899 535.24C570.259 538.68 568.939 543.44 568.939 549.52H598.339C598.499 548.48 598.619 547.52 598.699 546.64C598.779 545.68 598.819 544.8 598.819 544C598.819 539.04 597.419 535.48 594.619 533.32C591.899 531.08 588.659 529.96 584.899 529.96ZM623.798 570.4V494.2H630.998V569.56C630.998 572.28 631.358 574.2 632.078 575.32C632.878 576.44 634.398 577 636.638 577H638.558V583.6H636.278C631.958 583.6 628.798 582.52 626.798 580.36C624.798 578.2 623.798 574.88 623.798 570.4Z" fill="black"/>
</svg>
